<svg xmlns="http://www.w3.org/2000/svg" width="88" height="36.593" viewBox="0 0 88 36.593">
  <g id="Group_34" data-name="Group 34" transform="translate(-2.504 -290.832)">
    <path id="Path_3" data-name="Path 3" d="M42.588,304.9l-.016-.245a5.151,5.151,0,0,0-.826-.134q-5.858-.014-11.716.005a2.354,2.354,0,0,0-.767.3c.256.14.527.423.764.4,1.615-.18,2.365.677,2.9,2.074,2.35,6.135,4.754,12.249,7.162,18.362a13.968,13.968,0,0,0,.967,1.719,12.371,12.371,0,0,0,.965-1.733c1.453-3.947,2.864-7.91,4.292-11.866a5.513,5.513,0,0,1,.288-.556c1.378,3.568,2.7,7.005,4.033,10.437q.642,1.652,1.348,3.28c.088.2.363.508.471.478.221-.062.4-.306.567-.5a1.155,1.155,0,0,0,.14-.384c.654-1.984,1.268-3.982,1.968-5.95,1.6-4.506,3.259-8.994,4.869-13.5.4-1.122,1.012-1.852,2.322-1.783a3.687,3.687,0,0,0,1.072-.276l-.031-.259a1.43,1.43,0,0,0-.483-.2q-3.3-.02-6.6,0c-.176,0-.35.184-.525.282.161.147.31.4.485.423.6.069,1.208.032,1.811.077.782.059,1,.358.893,1.141a2.547,2.547,0,0,1-.093.485q-1.808,5.217-3.63,10.429c-.009.026-.091.026-.183.05-.31-.7-.638-1.388-.93-2.1-1.261-3.048-2.5-6.105-3.774-9.149-.266-.637-.639-1.229-.962-1.842l-.283.006a11.368,11.368,0,0,0-.763,1.408c-1,2.649-1.965,5.312-2.946,7.968-.5,1.35-1.009,2.7-1.584,4.231-.667-1.888-1.26-3.567-1.852-5.247-.721-2.048-1.463-4.09-2.152-6.149-.306-.915-.039-1.259.929-1.373.382-.045.77-.042,1.15-.1A5.053,5.053,0,0,0,42.588,304.9ZM90.5,326.3l-.035-.384c-.384-.029-.768-.089-1.151-.083-2.3.037-2.354.042-2.358-2.286q-.028-15.768-.006-31.535v-1.179a14.61,14.61,0,0,1-2.061.652c-2.385.376-4.781.68-7.17,1.025-.463.067-.916.2-1.374.3l.044.412c.689.049,1.379.088,2.067.148,1.29.113,1.49.325,1.565,1.619q.014.247.014.5,0,13.993-.015,27.986c0,2.394-.041,2.39-2.39,2.428a6.519,6.519,0,0,0-1.094.2l.017.374a11.46,11.46,0,0,0,1.292.135c2.751-.013,5.5-.053,8.252-.071,1.182-.008,2.364.031,3.545.011A3.393,3.393,0,0,0,90.5,326.3Zm-59.353-.025q0-.121-.005-.243a3.631,3.631,0,0,0-.777-.2c-.549-.023-1.1.02-1.65.02-.648,0-1.038-.284-1.06-.983-.028-.907-.111-1.814-.111-2.721q0-15.236.026-30.471c0-.258-.024-.515-.039-.814a14.874,14.874,0,0,1-2.05.634c-2.386.373-4.782.679-7.173,1.017-.477.067-1.053-.074-1.4.688.6.053,1.109.12,1.616.137,1.924.062,2.086.217,2.151,2.156.009.275.005.55.005.826q0,5.491,0,10.983c-.006,5.422.011,10.845-.039,16.267-.021,2.3-.087,2.295-2.391,2.329a6.207,6.207,0,0,0-1.089.209l.022.368a12.516,12.516,0,0,0,1.3.135q5.118.012,10.235-.006c.577,0,1.156-.016,1.73-.071A2.9,2.9,0,0,0,31.151,326.273Zm-28.388-.214q-.011.217-.023.434a5.137,5.137,0,0,0,.945.173q6.065-.013,12.13-.068a2.5,2.5,0,0,0,.816-.327c-.265-.129-.527-.264-.8-.382a.7.7,0,0,0-.246-.007c-2.333-.046-2.442-.14-2.458-2.508-.035-5.228-.041-10.456-.086-15.683-.011-1.28-.131-2.558-.2-3.852a1.815,1.815,0,0,0-.359.038,26.363,26.363,0,0,1-9.05,1.6.789.789,0,0,0-.326.022,7.191,7.191,0,0,0-.6.4,1.963,1.963,0,0,0,.584.308,10.154,10.154,0,0,0,1.154.026c1.669.039,1.967.3,1.973,1.994q.028,7.924,0,15.849c0,1.5-.233,1.691-1.721,1.789C3.916,325.906,3.34,325.993,2.763,326.058ZM72.2,303.726a26.738,26.738,0,0,1-9.7,1.769c-.082,0-.185-.013-.242.029a4.229,4.229,0,0,0-.381.354c.129.111.248.3.39.317a7.7,7.7,0,0,0,1.07.037c1.986.018,2.226.178,2.242,2.145q.064,7.758.01,15.516c-.01,1.769-.208,1.906-1.957,1.981a2.536,2.536,0,0,0-.33.012c-.408.072-.814.154-1.221.231q0,.181,0,.362a6.486,6.486,0,0,0,1.094.181c3.905-.009,7.811-.036,11.716-.059a4.1,4.1,0,0,0,.74-.015c.132-.025.239-.18.358-.277-.111-.135-.2-.326-.341-.389a1.566,1.566,0,0,0-.57-.04c-2.5-.055-2.6-.142-2.608-2.625-.017-5.2-.009-10.4-.044-15.6C72.419,306.4,72.285,305.145,72.2,303.726ZM6.353,294.075a3.259,3.259,0,0,0,3.265,3.41A3.354,3.354,0,0,0,13,294.071a3.124,3.124,0,0,0-3.143-3.229A3.215,3.215,0,0,0,6.353,294.075Zm66-.041a3.108,3.108,0,0,0-3.256-3.191,3.231,3.231,0,0,0-3.4,3.27,3.292,3.292,0,0,0,3.4,3.372A3.338,3.338,0,0,0,72.355,294.033Z" transform="translate(0)" fill="#fff"/>
    <path id="Path_4" data-name="Path 4" d="M177.822,373.334a5.045,5.045,0,0,1-.72.215c-.38.056-.768.054-1.15.1-.968.114-1.235.458-.929,1.373.689,2.059,1.43,4.1,2.152,6.149.592,1.68,1.185,3.359,1.852,5.247.575-1.535,1.085-2.881,1.584-4.231.982-2.656,1.946-5.319,2.946-7.968a11.369,11.369,0,0,1,.763-1.408l.283-.006c.323.613.7,1.205.962,1.842,1.273,3.043,2.513,6.1,3.774,9.149.293.708.621,1.4.931,2.1.092-.023.174-.024.183-.05q1.822-5.212,3.63-10.429a2.547,2.547,0,0,0,.094-.485c.108-.784-.111-1.082-.893-1.141-.6-.045-1.212-.009-1.811-.077-.176-.02-.324-.276-.485-.423.175-.1.349-.28.525-.282q3.3-.03,6.6,0a1.429,1.429,0,0,1,.483.2q.015.13.031.259a3.688,3.688,0,0,1-1.072.276c-1.311-.069-1.921.661-2.322,1.783-1.61,4.5-3.266,8.991-4.869,13.5-.7,1.968-1.315,3.966-1.968,5.95a1.155,1.155,0,0,1-.14.384c-.166.2-.347.44-.567.5-.108.03-.383-.276-.471-.478q-.7-1.627-1.348-3.28c-1.334-3.432-2.656-6.869-4.033-10.437a5.5,5.5,0,0,0-.288.556c-1.428,3.956-2.839,7.919-4.292,11.866a12.37,12.37,0,0,1-.965,1.733,13.967,13.967,0,0,1-.967-1.719c-2.408-6.112-4.812-12.227-7.162-18.362-.535-1.4-1.285-2.254-2.9-2.074-.237.026-.509-.257-.764-.4a2.356,2.356,0,0,1,.767-.3q5.858-.028,11.716-.005a5.161,5.161,0,0,1,.826.134Z" transform="translate(-135.234 -68.432)" fill="#fff"/>
    <path id="Path_5" data-name="Path 5" d="M463.711,326.3a3.392,3.392,0,0,1-.858.246c-1.181.02-2.364-.019-3.545-.011-2.751.018-5.5.058-8.252.071a11.461,11.461,0,0,1-1.292-.135l-.017-.374a6.518,6.518,0,0,1,1.094-.2c2.349-.038,2.386-.034,2.39-2.428q.026-13.993.015-27.986,0-.248-.014-.5c-.075-1.294-.275-1.506-1.565-1.619-.688-.06-1.378-.1-2.067-.148q-.022-.206-.044-.412c.458-.1.911-.23,1.374-.3,2.39-.345,4.786-.65,7.17-1.025a14.609,14.609,0,0,0,2.061-.652v1.179q0,15.767.006,31.535c0,2.328.053,2.323,2.358,2.286.383-.006.768.054,1.151.083Z" transform="translate(-373.207)" fill="#fff"/>
    <path id="Path_6" data-name="Path 6" d="M103.945,326.394a2.9,2.9,0,0,1-.7.256c-.574.055-1.153.069-1.73.071q-5.118.013-10.235.006a12.491,12.491,0,0,1-1.3-.135l-.022-.368a6.2,6.2,0,0,1,1.089-.209c2.3-.034,2.37-.024,2.391-2.329.05-5.422.033-10.845.039-16.267q.006-5.491,0-10.983c0-.275,0-.551-.005-.826-.064-1.939-.227-2.094-2.151-2.156-.506-.016-1.011-.084-1.616-.137.352-.763.928-.621,1.4-.689,2.391-.338,4.787-.644,7.173-1.017a14.883,14.883,0,0,0,2.05-.634c.015.3.039.556.039.814q-.014,15.235-.026,30.471c0,.907.083,1.814.11,2.721.021.7.411.982,1.06.983.55,0,1.1-.043,1.65-.02a3.637,3.637,0,0,1,.777.2Q103.943,326.273,103.945,326.394Z" transform="translate(-72.794 -0.122)" fill="#fff"/>
    <path id="Path_7" data-name="Path 7" d="M2.763,391.785c.577-.065,1.153-.153,1.732-.191,1.488-.1,1.716-.286,1.721-1.789q.025-7.924,0-15.849c-.006-1.691-.3-1.954-1.973-1.994a10.161,10.161,0,0,1-1.154-.026,1.963,1.963,0,0,1-.584-.308,7.176,7.176,0,0,1,.6-.4.788.788,0,0,1,.326-.022,26.361,26.361,0,0,0,9.05-1.6,1.811,1.811,0,0,1,.359-.038c.071,1.294.19,2.573.2,3.852.046,5.228.051,10.456.086,15.683.016,2.368.124,2.461,2.458,2.508a.7.7,0,0,1,.246.007c.27.118.532.253.8.382a2.5,2.5,0,0,1-.816.327q-6.065.062-12.13.068a5.137,5.137,0,0,1-.945-.173Q2.751,392,2.763,391.785Z" transform="translate(0 -65.727)" fill="#fff"/>
    <path id="Path_8" data-name="Path 8" d="M372.275,368.892c.086,1.419.22,2.675.228,3.932.035,5.2.027,10.4.044,15.6.008,2.482.1,2.57,2.608,2.625a1.567,1.567,0,0,1,.57.04c.143.063.229.255.341.389-.119.1-.226.252-.358.277a4.1,4.1,0,0,1-.74.015c-3.905.022-7.811.05-11.716.059a6.485,6.485,0,0,1-1.094-.181q0-.181,0-.362c.407-.078.813-.159,1.221-.231a2.541,2.541,0,0,1,.33-.012c1.748-.075,1.947-.212,1.957-1.98q.045-7.758-.01-15.516c-.016-1.966-.255-2.127-2.242-2.145a7.723,7.723,0,0,1-1.07-.037c-.143-.022-.261-.207-.39-.318a4.213,4.213,0,0,1,.381-.354c.057-.042.16-.027.242-.029A26.736,26.736,0,0,0,372.275,368.892Z" transform="translate(-300.076 -65.166)" fill="#fff"/>
    <path id="Path_9" data-name="Path 9" d="M25.806,294.124a3.215,3.215,0,0,1,3.5-3.232,3.124,3.124,0,0,1,3.143,3.229,3.354,3.354,0,0,1-3.38,3.414A3.259,3.259,0,0,1,25.806,294.124Z" transform="translate(-19.453 -0.049)" fill="#fff"/>
    <path id="Path_10" data-name="Path 10" d="M391.754,294.082a3.338,3.338,0,0,1-3.252,3.451,3.292,3.292,0,0,1-3.4-3.372,3.231,3.231,0,0,1,3.4-3.27A3.108,3.108,0,0,1,391.754,294.082Z" transform="translate(-319.399 -0.049)" fill="#fff"/>
  </g>
</svg>
